# xmcd
#
# Track frame offsets: 
#        150
#        13813
#        26638
#        42714
#
# Disc length: 837 seconds
#
# Revision: 0
# Processed by: cddbd v1.5.2PL0 Copyright (c) Steve Scherf et al.
# Submitted via: ExactAudioCopy v0.95b4
#
DISCID=30034304
DTITLE=Long Way Home - Alex Hart and Becca Langsford
DYEAR=2015
DGENRE=Folk
TTITLE0=Long Way Home
TTITLE1=Tell The Boss
TTITLE2=A Life That's Good
TTITLE3=Mexico
EXTD=
EXTT0=
EXTT1=
EXTT2=
EXTT3=
PLAYORDER=
